<svg width="71" height="89" viewBox="0 0 71 89" fill="none" xmlns="http://www.w3.org/2000/svg">
<path d="M70.8252 46C70.8252 53.2165 68.5769 59.9078 64.7426 65.4119C62.6123 68.5641 60.0726 71.0943 57.3561 73.1037C51.6513 77.4317 44.5382 80 36.8252 80V12C47.986 12 55.7509 16.3082 61.0148 22.1073C67.0806 28.2479 70.8252 36.6867 70.8252 46Z" fill="white"/>
<path d="M0 46C0 53.2165 2.44664 59.9078 6.61926 65.4119C8.93756 68.5641 11.7014 71.0943 14.6576 73.1037C20.8657 77.4317 28.6065 80 37 80V12C24.8544 12 16.4044 16.3082 10.676 22.1073C4.07502 28.2479 0 36.6867 0 46Z" fill="white"/>
<path d="M13 46C13 40.906 14.587 36.1827 17.2936 32.2975C18.7973 30.0724 20.5901 28.2864 22.5076 26.868C26.5345 23.8129 31.5555 22 37 22L37 70C29.1218 70 23.6407 66.9589 19.925 62.8654C15.6432 58.5308 13 52.5741 13 46Z" fill="black"/>
<path d="M33.3025 69.975C30.0092 69.975 27.0408 69.4008 24.3975 68.2525C21.7542 67.1042 19.5008 65.4683 17.6375 63.345C15.7958 61.2217 14.3875 58.665 13.4125 55.675C12.4375 52.6633 11.95 49.305 11.95 45.6C11.95 40.7033 12.795 36.435 14.485 32.795C16.1967 29.1333 18.645 26.295 21.83 24.28C25.015 22.265 28.8392 21.2575 33.3025 21.2575C38.2858 21.2575 42.3375 22.4275 45.4575 24.7675C48.5992 27.0858 50.7875 30.2058 52.0225 34.1275L47.2125 35.2975C46.1942 32.4375 44.515 30.1517 42.175 28.44C39.8567 26.7283 36.9642 25.8725 33.4975 25.8725C29.8358 25.8508 26.7917 26.6742 24.365 28.3425C21.9383 29.9892 20.1075 32.3075 18.8725 35.2975C17.6592 38.2658 17.0417 41.7 17.02 45.6C16.9983 49.5 17.5942 52.9342 18.8075 55.9025C20.0425 58.8492 21.8842 61.1675 24.3325 62.8575C26.7808 64.5258 29.8358 65.3708 33.4975 65.3925C36.8558 65.3925 39.6292 64.7425 41.8175 63.4425C44.0058 62.1425 45.6633 60.2792 46.79 57.8525C47.9383 55.4258 48.5883 52.555 48.74 49.24H37.95V45.145H53.745C53.81 45.6433 53.8425 46.1742 53.8425 46.7375C53.8642 47.2792 53.875 47.6692 53.875 47.9075C53.875 52.1325 53.1167 55.9133 51.6 59.25C50.0833 62.565 47.7975 65.1867 44.7425 67.115C41.7092 69.0217 37.8958 69.975 33.3025 69.975Z" fill="black"/>
</svg>
