<svg width="61" height="89" viewBox="0 0 61 89" fill="none" xmlns="http://www.w3.org/2000/svg">
<path d="M60.8252 46C60.8252 53.2165 58.5769 59.9078 54.7426 65.4119C52.6123 68.5641 50.0726 71.0943 47.3561 73.1037C41.6513 77.4317 34.5382 80 26.8252 80V12C37.986 12 45.7509 16.3082 51.0148 22.1073C57.0806 28.2479 60.8252 36.6867 60.8252 46Z" fill="white"/>
<path d="M3 46C3 40.906 4.58702 36.1827 7.29359 32.2975C8.79734 30.0724 10.5901 28.2864 12.5076 26.868C16.5345 23.8129 21.5555 22 27 22L27 70C19.1218 70 13.6407 66.9589 9.92495 62.8654C5.64325 58.5308 3 52.5741 3 46Z" fill="black"/>
<path d="M23.3025 69.975C20.0092 69.975 17.0408 69.4008 14.3975 68.2525C11.7542 67.1042 9.50083 65.4683 7.6375 63.345C5.79583 61.2217 4.3875 58.665 3.4125 55.675C2.4375 52.6633 1.95 49.305 1.95 45.6C1.95 40.7033 2.795 36.435 4.485 32.795C6.19667 29.1333 8.645 26.295 11.83 24.28C15.015 22.265 18.8392 21.2575 23.3025 21.2575C28.2858 21.2575 32.3375 22.4275 35.4575 24.7675C38.5992 27.0858 40.7875 30.2058 42.0225 34.1275L37.2125 35.2975C36.1942 32.4375 34.515 30.1517 32.175 28.44C29.8567 26.7283 26.9642 25.8725 23.4975 25.8725C19.8358 25.8508 16.7917 26.6742 14.365 28.3425C11.9383 29.9892 10.1075 32.3075 8.8725 35.2975C7.65917 38.2658 7.04167 41.7 7.02 45.6C6.99833 49.5 7.59417 52.9342 8.8075 55.9025C10.0425 58.8492 11.8842 61.1675 14.3325 62.8575C16.7808 64.5258 19.8358 65.3708 23.4975 65.3925C26.8558 65.3925 29.6292 64.7425 31.8175 63.4425C34.0058 62.1425 35.6633 60.2792 36.79 57.8525C37.9383 55.4258 38.5883 52.555 38.74 49.24H27.95V45.145H43.745C43.81 45.6433 43.8425 46.1742 43.8425 46.7375C43.8642 47.2792 43.875 47.6692 43.875 47.9075C43.875 52.1325 43.1167 55.9133 41.6 59.25C40.0833 62.565 37.7975 65.1867 34.7425 67.115C31.7092 69.0217 27.8958 69.975 23.3025 69.975Z" fill="black"/>
</svg>
